<?xml version="1.0" encoding="UTF-8" standalone="no"?>
<!-- http://code.google.com/p/vector-playing-cards/ -->

<svg
   xmlns:dc="http://purl.org/dc/elements/1.1/"
   xmlns:cc="http://creativecommons.org/ns#"
   xmlns:rdf="http://www.w3.org/1999/02/22-rdf-syntax-ns#"
   xmlns:svg="http://www.w3.org/2000/svg"
   xmlns="http://www.w3.org/2000/svg"
   xmlns:xlink="http://www.w3.org/1999/xlink"
   xmlns:sodipodi="http://sodipodi.sourceforge.net/DTD/sodipodi-0.dtd"
   xmlns:inkscape="http://www.inkscape.org/namespaces/inkscape"
   width="132.28688pt"
   height="160.92465pt"
   viewBox="0 0 132.28688 160.92465"
   xml:space="preserve"
   id="svg2"
   version="1.1"
   inkscape:version="0.92.3 (2405546, 2018-03-11)"
   sodipodi:docname="ace_of_spades_fancy.svg"
   inkscape:export-filename="/home/byron/art/cards/final/PNGs/4_of_diamonds.png"
   inkscape:export-xdpi="215.44792"
   inkscape:export-ydpi="215.44792"><metadata
   id="metadata43"><rdf:RDF><cc:Work
       rdf:about=""><dc:format>image/svg+xml</dc:format><dc:type
         rdf:resource="http://purl.org/dc/dcmitype/StillImage" /><dc:title></dc:title></cc:Work></rdf:RDF></metadata><defs
   id="defs41"><radialGradient
     inkscape:collect="always"
     xlink:href="#linearGradient3773"
     id="radialGradient3781"
     cx="-0.15782039"
     cy="-8.8345356"
     fx="-0.15782039"
     fy="-8.8345356"
     r="7.9997029"
     gradientTransform="matrix(-1.5842693,-0.02349808,0.03071979,-2.4775745,-0.24856378,-26.713507)"
     gradientUnits="userSpaceOnUse" /><linearGradient
     id="linearGradient3773"><stop
       style="stop-color:#000000;stop-opacity:1;"
       offset="0"
       id="stop3775" /><stop
       style="stop-color:#000000;stop-opacity:0.64885497;"
       offset="1"
       id="stop3777" /></linearGradient><radialGradient
     inkscape:collect="always"
     xlink:href="#linearGradient3773"
     id="radialGradient3957"
     cx="-0.15782039"
     cy="-8.8345356"
     fx="-0.15782039"
     fy="-8.8345356"
     r="7.9997029"
     gradientTransform="matrix(-1.5842693,-0.02349808,0.03071979,-2.4775745,-0.24856378,-26.713507)"
     gradientUnits="userSpaceOnUse" /><linearGradient
     id="linearGradient3959"><stop
       style="stop-color:#000000;stop-opacity:1;"
       offset="0"
       id="stop3961" /><stop
       style="stop-color:#000000;stop-opacity:0.64885497;"
       offset="1"
       id="stop3963" /></linearGradient><radialGradient
     r="81.902771"
     fy="509.47577"
     fx="168.02475"
     cy="509.47577"
     cx="168.02475"
     gradientTransform="matrix(1.2565605,-0.77740644,0.33663816,0.5361257,-221.20213,359.24256)"
     gradientUnits="userSpaceOnUse"
     id="radialGradient3975"
     xlink:href="#linearGradient3784-4"
     inkscape:collect="always" /><linearGradient
     id="linearGradient3784-4"><stop
       style="stop-color:#ffffff;stop-opacity:0.4351145;"
       offset="0"
       id="stop3786-8" /><stop
       style="stop-color:#000000;stop-opacity:0;"
       offset="1"
       id="stop3788-6" /></linearGradient><radialGradient
     inkscape:collect="always"
     xlink:href="#linearGradient3784-4-5"
     id="radialGradient3929"
     gradientUnits="userSpaceOnUse"
     gradientTransform="matrix(1.2565605,-0.77740644,0.33663816,0.5361257,-221.20213,359.24256)"
     cx="168.02475"
     cy="509.47577"
     fx="168.02475"
     fy="509.47577"
     r="81.902771" /><linearGradient
     id="linearGradient3784-4-5"><stop
       style="stop-color:#ffffff;stop-opacity:0.48854962;"
       offset="0"
       id="stop3786-8-0" /><stop
       style="stop-color:#000000;stop-opacity:0;"
       offset="1"
       id="stop3788-6-3" /></linearGradient><radialGradient
     inkscape:collect="always"
     xlink:href="#linearGradient3784-4-1"
     id="radialGradient3927"
     gradientUnits="userSpaceOnUse"
     gradientTransform="matrix(1.2565605,-0.77740644,0.33663816,0.5361257,-221.20213,359.24256)"
     cx="168.02475"
     cy="509.47577"
     fx="168.02475"
     fy="509.47577"
     r="81.902771" /><linearGradient
     id="linearGradient3784-4-1"><stop
       style="stop-color:#ffffff;stop-opacity:0.23664123;"
       offset="0"
       id="stop3786-8-03" /><stop
       style="stop-color:#000000;stop-opacity:0;"
       offset="1"
       id="stop3788-6-6" /></linearGradient><linearGradient
     id="linearGradient3768"><stop
       style="stop-color:#df0000;stop-opacity:1;"
       offset="0"
       id="stop3770" /><stop
       style="stop-color:#df0000;stop-opacity:0.67175573;"
       offset="1"
       id="stop3772" /></linearGradient><linearGradient
     id="linearGradient3784-4-6"><stop
       style="stop-color:#ffffff;stop-opacity:0.31297711;"
       offset="0"
       id="stop3786-8-8" /><stop
       style="stop-color:#000000;stop-opacity:0;"
       offset="1"
       id="stop3788-6-8" /></linearGradient><radialGradient
     r="81.902771"
     fy="492.63205"
     fx="159.35434"
     cy="492.63205"
     cx="159.35434"
     gradientTransform="matrix(1.0894779,-0.71513803,0.44645273,0.65626582,-244.93331,290.9185)"
     gradientUnits="userSpaceOnUse"
     id="radialGradient4013-8"
     xlink:href="#linearGradient3784-4-2"
     inkscape:collect="always" /><linearGradient
     id="linearGradient3784-4-2"><stop
       style="stop-color:#ffffff;stop-opacity:0.29007635;"
       offset="0"
       id="stop3786-8-1" /><stop
       style="stop-color:#000000;stop-opacity:0;"
       offset="1"
       id="stop3788-6-5" /></linearGradient><linearGradient
     id="linearGradient2984"><stop
       style="stop-color:#df0000;stop-opacity:1;"
       offset="0"
       id="stop2986" /><stop
       style="stop-color:#df0000;stop-opacity:0.64122134;"
       offset="1"
       id="stop2988" /></linearGradient><linearGradient
     id="linearGradient3784-4-4"><stop
       style="stop-color:#ffffff;stop-opacity:0.4351145;"
       offset="0"
       id="stop3786-8-8-2" /><stop
       style="stop-color:#000000;stop-opacity:0;"
       offset="1"
       id="stop3788-6-1" /></linearGradient><radialGradient
     r="81.902771"
     fy="511.22299"
     fx="171.48665"
     cy="511.22299"
     cx="171.48665"
     gradientTransform="matrix(1.1529891,-0.67391547,0.39482025,0.67549043,-233.63262,270.40076)"
     gradientUnits="userSpaceOnUse"
     id="radialGradient3100"
     xlink:href="#linearGradient3784-4-4"
     inkscape:collect="always" /><radialGradient
     inkscape:collect="always"
     xlink:href="#linearGradient2984"
     id="radialGradient3137"
     gradientUnits="userSpaceOnUse"
     gradientTransform="matrix(-1.1224159,0.00551393,-0.00908973,-1.8503101,-0.0293938,-10.227695)"
     cx="1.6632675e-13"
     cy="-3.2337365"
     fx="1.6632675e-13"
     fy="-3.2337365"
     r="8" /></defs><sodipodi:namedview
   pagecolor="#ffffff"
   bordercolor="#666666"
   borderopacity="1"
   objecttolerance="10"
   gridtolerance="10"
   guidetolerance="10"
   inkscape:pageopacity="0"
   inkscape:pageshadow="2"
   inkscape:window-width="1173"
   inkscape:window-height="1009"
   id="namedview39"
   showgrid="false"
   inkscape:zoom="3.4417536"
   inkscape:cx="61.023934"
   inkscape:cy="109.75351"
   inkscape:window-x="55"
   inkscape:window-y="34"
   inkscape:window-maximized="0"
   inkscape:current-layer="svg2"
   showguides="true"><sodipodi:guide
     position="141.425,71.911015"
     orientation="0,222.78255"
     id="guide3973"
     inkscape:locked="false" /><sodipodi:guide
     position="70.603542,162.9983"
     orientation="-323.55599,0"
     id="guide3975"
     inkscape:locked="false" /><sodipodi:guide
     position="148.18027,6.537365"
     orientation="0,-222.78255"
     id="guide3977"
     inkscape:locked="false" /><sodipodi:guide
     position="120.50543,162.9983"
     orientation="323.55599,0"
     id="guide3979"
     inkscape:locked="false" /></sodipodi:namedview>
	
<g
   id="Layer_x0020_1"
   style="clip-rule:nonzero;fill-rule:nonzero;stroke:#000000;stroke-miterlimit:4"
   transform="scale(0.79172502,0.66315018)">
		<path
   style="fill:#ffffff;stroke-width:0.5"
   d="m 166.83691,235.54785 c 0,3.77735 -3.08691,6.86914 -6.87109,6.86914 H 7.1108398 C 3.3359375,242.41699 0.25,239.3252 0.25,235.54785 V 7.1201172 C 0.25,3.3427734 3.3359375,0.25 7.1108398,0.25 H 159.96582 c 3.78418,0 6.87109,3.0927734 6.87109,6.8701172 z"
   id="path5"
   inkscape:connector-curvature="0" />
		<g
   style="stroke:none"
   id="g7">
			<g
   id="g9">
				
			</g>
			
		</g>
		<g
   id="g15">
			
		</g>
		<g
   id="g19">
			
		</g>
		<g
   style="stroke:none"
   id="g23">
			<g
   id="g25">
				
			</g>
			
		</g>
		<g
   style="stroke:none"
   id="g31">
			<g
   id="g33">
				
			</g>
			
		</g>
	</g>




























<path
   style="fill:#000000;stroke-width:0.21791218"
   d="m 87.419307,74.309019 c 1.731855,-2.552031 5.600722,-14.784757 5.938027,-18.775071 0.07632,-0.902874 0.05017,-1.601997 -0.05978,-1.599195 -0.107475,0.0028 -0.979897,1.100991 -1.938712,2.44056 -2.53662,3.543947 -5.236388,6.205895 -7.349251,7.246301 -1.652242,0.813593 -1.719067,0.826857 -3.595545,0.713829 -4.45539,-0.268368 -7.772304,-2.807442 -9.247612,-7.078971 -0.436859,-1.264859 -0.508703,-1.892609 -0.505425,-4.416259 0.0032,-2.46118 0.08642,-3.205342 0.509392,-4.554789 1.888992,-6.026661 5.496683,-11.948178 15.811838,-25.952915 4.78374,-6.494822 7.2576,-10.160466 7.975711,-11.818018 0.297669,-0.6871008 0.595069,-1.2509485 0.660879,-1.2529945 0.0658,-0.00202 0.23864,0.3253095 0.38406,0.7274547 0.6119,1.6921738 2.577045,4.6073998 9.019971,13.3807968 9.22381,12.560154 12.85735,18.512515 14.79737,24.240573 1.22055,3.603781 1.10926,8.217688 -0.26423,10.954734 -1.89675,3.779765 -5.58952,6.009758 -9.5703,5.779316 -1.37157,-0.0794 -2.00471,-0.243448 -3.19547,-0.827956 -1.98234,-0.973061 -4.85902,-3.887522 -7.041767,-7.134247 -0.898879,-1.337049 -1.722284,-2.435813 -1.829754,-2.441697 -0.36108,-0.01976 0.07,3.115341 0.852375,6.199799 1.422616,5.608178 4.251976,13.414134 5.269726,14.53874 0.33645,0.371773 -0.0197,0.388245 -8.392341,0.388245 h -8.74369 z"
   id="path108"
   inkscape:connector-curvature="0" /><path
   style="fill:#000000;stroke-width:0.21791218"
   d="m 25.532252,153.84697 c 1.731855,-2.55203 5.600722,-14.78476 5.938027,-18.77507 0.07632,-0.90288 0.05017,-1.602 -0.05978,-1.5992 -0.107475,0.003 -0.979897,1.10099 -1.938712,2.44056 -2.53662,3.54395 -5.236388,6.2059 -7.349251,7.2463 -1.652242,0.8136 -1.719067,0.82686 -3.595545,0.71383 -4.45539,-0.26837 -7.772304,-2.80744 -9.2476122,-7.07897 -0.436859,-1.26486 -0.508703,-1.89261 -0.505425,-4.41626 0.0032,-2.46118 0.08642,-3.20534 0.509392,-4.55479 1.8889922,-6.02666 5.4966832,-11.94817 15.8118382,-25.95291 4.78374,-6.494828 7.2576,-10.160472 7.975711,-11.818023 0.297669,-0.687101 0.595069,-1.250948 0.660879,-1.252994 0.0658,-0.002 0.23864,0.325309 0.38406,0.727454 0.6119,1.692173 2.577045,4.607399 9.019976,13.380803 9.22381,12.56015 12.857346,18.51251 14.797366,24.24057 1.22055,3.60378 1.10926,8.21769 -0.26423,10.95473 -1.89675,3.77977 -5.589516,6.00976 -9.570297,5.77932 -1.37157,-0.0794 -2.00471,-0.24345 -3.19547,-0.82796 -1.98234,-0.97306 -4.859019,-3.88752 -7.04177,-7.13424 -0.89888,-1.33705 -1.722285,-2.43582 -1.829755,-2.4417 -0.36108,-0.0198 0.07,3.11534 0.852375,6.1998 1.422621,5.60818 4.251981,13.41413 5.269731,14.53874 0.33645,0.37177 -0.0197,0.38824 -8.392346,0.38824 h -8.74369 z"
   id="path108-2"
   inkscape:connector-curvature="0" />



<text
   xml:space="preserve"
   style="font-style:normal;font-weight:normal;font-size:31.03936005px;line-height:0%;font-family:'Bitstream Vera Sans';letter-spacing:0px;word-spacing:0px;fill:#000000;fill-opacity:1;stroke:none;stroke-width:2.58661318"
   x="9.719265"
   y="67.288223"
   id="text3788-3"
   transform="scale(0.89329143,1.1194555)"><tspan
     sodipodi:role="line"
     id="tspan3790-6"
     x="9.719265"
     y="67.288223"
     style="font-style:normal;font-variant:normal;font-weight:normal;font-stretch:normal;font-size:82.7716217px;line-height:1.25;font-family:Arial;-inkscape-font-specification:Arial;fill:#000000;fill-opacity:1;stroke-width:2.58661318">A</tspan></text>
<path
   style="fill:#000000;stroke-width:0.4801558"
   d="m 93.713656,154.38748 c -3.740306,-0.002 -6.832164,-0.0346 -6.870799,-0.0727 -0.03863,-0.0377 0.26595,-0.33007 0.67685,-0.64942 1.495901,-1.16256 2.785061,-3.10002 4.272573,-6.42126 1.022307,-2.28253 1.351213,-3.19845 1.690799,-4.70838 0.543413,-2.41626 0.525788,-4.06984 -0.05082,-4.76697 l -0.276424,-0.33422 -1.113643,1.18077 c -1.238058,1.31268 -2.849043,2.43038 -4.646481,3.22379 -1.968937,0.8691 -3.242901,1.14713 -5.405433,1.1797 -1.705507,0.0257 -2.072668,-0.0192 -3.29149,-0.40211 -3.077001,-0.96671 -5.570697,-3.18117 -7.02307,-6.23658 -0.874938,-1.84064 -1.098511,-2.86038 -1.140779,-5.2032 -0.03419,-1.89542 0.0066,-2.26375 0.433657,-3.9152 0.666927,-2.57908 2.033252,-5.77006 3.424274,-7.99723 1.690662,-2.70691 5.588851,-7.73109 9.708776,-12.51311 3.389774,-3.93456 4.755605,-5.68746 7.120537,-9.138507 2.516123,-3.67166 3.515004,-5.431935 3.991523,-7.034042 0.190492,-0.640443 0.380905,-1.164558 0.423143,-1.164699 0.04224,-2.5e-5 0.28874,0.636227 0.547778,1.41415 1.030256,3.094012 3.696191,7.329615 7.561373,12.013378 0.68817,0.83395 2.69195,3.20902 4.45282,5.27797 5.76699,6.77594 8.20162,10.18734 10.35238,14.50571 1.66545,3.34396 2.32249,5.92145 2.24391,8.80279 -0.10041,3.68228 -1.26895,6.28357 -3.97738,8.85413 -1.11573,1.05891 -2.82697,2.06167 -4.18739,2.45374 -0.42062,0.12121 -1.5591,0.27708 -2.52996,0.34637 -2.90699,0.20742 -5.07416,-0.36739 -8.09399,-2.14683 -1.41622,-0.83449 -3.016956,-2.18251 -3.459316,-2.91318 -0.357462,-0.59042 -0.63146,-0.55278 -0.89984,0.12367 -0.451285,1.13747 -0.523552,2.16205 -0.248878,3.52853 0.856551,4.2612 3.594984,9.71884 5.946464,11.85114 l 0.95015,0.86158 -1.89039,0.002 c -1.03971,0.001 -4.950631,2.7e-4 -8.690933,-0.002 z m 6.208717,-2.2535 c -0.737024,-0.59473 -2.333816,-2.8902 -3.124651,-4.49187 -0.822414,-1.66563 -1.073819,-2.88886 -0.841253,-4.09323 0.09536,-0.49385 0.208636,-1.08025 0.251724,-1.30309 0.05024,-0.25985 -0.05749,-0.66523 -0.300348,-1.13019 l -0.378684,-0.72503 -0.424278,0.81548 -0.424277,0.81545 0.280214,0.7511 c 0.413385,1.10801 0.314445,2.71788 -0.241535,3.9302 -0.702628,1.53211 -3.057131,5.06004 -3.663567,5.4894 -0.710059,0.50273 -0.394562,0.48632 0.958372,-0.0499 0.974881,-0.38638 1.286184,-0.43288 3.007246,-0.44926 1.977407,-0.0189 3.781521,0.24005 4.568797,0.65551 0.731987,0.38631 0.923577,0.26255 0.33224,-0.2146 z m -2.835579,-0.99667 c -0.913486,-0.20137 -3.215949,-0.14318 -4.069021,0.1029 -0.378211,0.10907 -0.377298,0.10441 0.08374,-0.4221 0.634368,-0.72452 1.035217,-1.49198 1.786432,-3.42018 0.577653,-1.48272 0.652073,-1.60095 0.788051,-1.25206 0.08258,0.21192 0.410828,1.10173 0.729429,1.97736 0.55784,1.53317 0.904938,2.17381 1.57656,2.90993 0.352201,0.38601 0.372491,0.38365 -0.89519,0.10419 z m 15.201936,-10.48606 c 2.13955,-0.82351 4.12377,-2.74862 5.16672,-5.01277 0.65638,-1.42495 0.88954,-2.28475 1.08829,-4.01337 0.27864,-2.42348 -0.12672,-4.59815 -1.43223,-7.68362 -1.72573,-4.07863 -4.1511,-7.43218 -9.22035,-12.74893 -7.70633,-8.0826 -9.615775,-10.59759 -11.429139,-15.053732 -0.310371,-0.762701 -0.615693,-1.682432 -0.678502,-2.043854 -0.06281,-0.361426 -0.159919,-0.654558 -0.215811,-0.651411 -0.05589,0.0033 -0.278089,0.590006 -0.493775,1.304132 -1.297461,4.295781 -4.222567,8.435755 -11.027673,15.607695 -4.74339,4.99908 -5.481483,5.88589 -7.426199,8.9225 -2.540274,3.96653 -3.711083,7.15889 -3.842338,10.47663 -0.206969,5.23161 2.509444,9.70373 6.643685,10.93771 2.527775,0.75449 5.998479,0.14235 8.732733,-1.54023 2.196715,-1.35179 3.315163,-2.46714 4.160738,-4.14917 0.271851,-0.54077 0.519089,-1.01369 0.549415,-1.05096 0.03031,-0.0372 0.305849,0.16788 0.612261,0.45586 0.536532,0.50426 1.476594,2.11529 1.866101,3.19805 l 0.187424,0.52099 0.50421,-1.2163 c 0.334826,-0.80773 0.77995,-1.52603 1.325053,-2.13831 l 0.820849,-0.92202 0.548534,1.10224 c 1.251766,2.51534 4.745444,5.00305 8.303674,5.91277 1.52104,0.38886 3.94677,0.29017 5.25633,-0.2139 z m -4.06872,-0.11983 c -1.29503,-0.15511 -2.10836,-0.40574 -3.45967,-1.06616 -3.55293,-1.73635 -5.426486,-3.66641 -5.790084,-5.96471 -0.06392,-0.40405 -0.188233,-0.73355 -0.276248,-0.73221 -0.521326,0.007 -2.19546,1.96439 -2.772257,3.23991 -0.130815,0.28928 -0.297677,0.52688 -0.370803,0.52797 -0.07312,0.001 -0.286017,-0.29216 -0.473095,-0.65174 -0.541655,-1.04098 -1.551224,-2.37917 -2.108876,-2.79531 -0.562769,-0.41996 -0.560605,-0.4212 -0.827682,0.47544 -0.285687,0.95909 -0.871515,2.11585 -1.442144,2.84763 -0.582308,0.74674 -3.046699,2.51912 -4.311475,3.1008 -2.84216,1.30712 -6.189362,1.32065 -8.438968,0.0341 -1.926926,-1.102 -3.36963,-3.14381 -4.08744,-5.78483 -1.014634,-3.73307 -0.450139,-7.24738 1.83978,-11.45372 2.109068,-3.87413 3.411478,-5.61843 7.294744,-9.7697 6.43748,-6.88175 9.675437,-11.11974 11.550071,-15.117265 0.779003,-1.661157 0.952011,-1.576158 0.511507,0.251326 -0.75259,3.122249 -5.802897,10.684459 -13.516183,20.238819 -2.078788,2.57499 -4.318284,6.36076 -5.005105,8.4609 -0.943344,2.88457 -1.07973,5.20781 -0.445171,7.58317 0.902134,3.37701 2.766362,5.32636 5.493843,5.74474 3.956144,0.60684 7.494769,-2.28601 9.837602,-8.04226 l 0.565608,-1.38966 0.775752,1.17237 c 0.84156,1.27186 2.551995,3.08345 2.906235,3.07811 0.271909,-0.004 2.273484,-2.1742 2.932453,-3.17938 0.266701,-0.4068 0.522833,-0.74203 0.56918,-0.74493 0.04636,-0.003 0.180633,0.2549 0.298411,0.57286 0.117777,0.31797 0.489835,1.12364 0.826795,1.79043 2.38718,4.72378 5.55195,7.04046 9.21246,6.74367 1.62768,-0.13196 2.80473,-0.83072 3.94223,-2.34033 1.23246,-1.63563 1.81543,-3.1655 2.01375,-5.28454 0.22023,-2.35332 -0.3678,-4.94877 -1.81205,-7.99803 -0.80949,-1.70908 -3.20455,-5.19256 -5.10593,-7.42631 -3.71719,-4.36696 -9.869426,-13.06115 -11.559766,-16.336 -0.438194,-0.848951 -1.003477,-2.710984 -1.141757,-3.760918 -0.111762,-0.848589 0.0594,-0.675674 0.50969,0.514931 0.733864,1.940403 2.546262,4.841797 4.552523,7.287997 1.25752,1.53325 2.64509,3.07804 6.1279,6.82218 2.24443,2.41283 3.66629,4.07163 5.27675,6.15607 2.75388,3.5644 5.01733,8.28869 5.56158,11.60826 0.53132,3.24068 -0.75193,7.29558 -2.98676,9.43771 -0.87188,0.8357 -2.60339,1.74403 -3.88642,2.03874 -1.09225,0.25092 -1.47665,0.26609 -2.78098,0.10989 z m -1.35784,-1.7381 c -1.30353,-0.47858 -2.39046,-1.18758 -3.25536,-2.12348 -1.53749,-1.66371 -3.13753,-4.46334 -3.868909,-6.76948 -0.382816,-1.20712 -0.517178,-1.38262 -0.668939,-0.87384 -0.312127,1.04638 -3.034908,5.02283 -3.442543,5.02761 -0.289115,0.004 -1.549358,-1.64477 -2.749824,-3.59629 -0.622013,-1.01117 -1.150935,-1.85808 -1.175384,-1.88203 -0.02446,-0.024 -0.184961,0.51979 -0.356691,1.20829 -0.784886,3.14683 -3.127719,6.92463 -5.170957,8.33813 -2.884133,1.99524 -7.15724,1.11608 -8.460144,-1.74059 -0.347004,-0.76082 -0.643659,-2.35761 -0.438579,-2.3607 0.07032,-0.001 0.12892,0.0694 0.130207,0.1564 0.0051,0.34448 0.880221,1.4269 1.476348,1.82603 2.33907,1.5661 4.594949,1.31106 7.196328,-0.81357 2.033573,-1.66089 3.916862,-5.4081 3.195787,-6.35873 -0.186752,-0.2462 -0.203122,-0.20816 -0.143789,0.33404 0.08816,0.80558 -0.259447,1.34245 -1.18815,1.83512 -0.401368,0.21292 -0.796201,0.51102 -0.877401,0.66246 -0.135488,0.25264 -0.184486,0.24076 -0.595192,-0.14428 -0.246149,-0.23075 -0.609968,-0.41713 -0.808482,-0.41414 -0.355021,0.005 -0.356154,0.0108 -0.06913,0.32124 0.348342,0.37701 0.407641,1.6087 0.120856,2.51021 -0.231023,0.72621 -1.407105,2.00586 -2.214526,2.40955 -1.353947,0.67692 -3.507929,0.22732 -4.604052,-0.96104 -1.570629,-1.7028 -0.954382,-4.56106 1.241319,-5.75751 1.054234,-0.57445 2.551139,-0.3578 3.343673,0.48397 0.371414,0.39447 0.374158,0.41465 0.129516,0.95294 -0.342152,0.75284 -0.583829,0.80139 -1.163335,0.23371 -0.454394,-0.44511 -0.559001,-0.47819 -1.262338,-0.39929 -1.331003,0.14933 -2.154528,1.37336 -1.784279,2.65201 0.21212,0.73257 1.323399,1.73564 2.065809,1.86466 1.947759,0.33851 3.768318,-1.83133 3.275742,-3.90421 -0.153461,-0.64581 -0.127918,-0.86837 0.22063,-1.92246 0.764633,-2.31241 0.336952,-5.88653 -0.882363,-7.37382 -0.241063,-0.29404 -0.244844,-0.2894 -0.09464,0.11634 0.162559,0.43915 0.08595,0.89145 -0.151606,0.89502 -0.07543,0.001 -0.138222,-0.0711 -0.139543,-0.1605 -0.0013,-0.0895 -0.290132,-0.2874 -0.641802,-0.44 -0.801322,-0.34769 -1.418763,-0.16396 -1.758043,0.5231 -0.222137,0.44988 -0.219641,0.4681 0.04828,0.35245 0.635376,-0.27424 0.860055,-0.27837 1.436712,-0.0265 1.118121,0.48873 1.791973,1.8621 1.811987,3.69294 0.01212,1.10768 -0.227768,2.40631 -0.445079,2.40959 -0.04465,0.001 -0.343379,-0.20203 -0.663861,-0.45043 -0.772066,-0.59845 -1.258345,-0.76152 -2.215669,-0.74302 -1.597967,0.0308 -3.152519,1.22623 -3.999653,3.07541 -0.274209,0.59855 -0.498057,1.26465 -0.49744,1.48022 10e-4,0.37338 -0.0077,0.3774 -0.184916,0.0848 -0.25683,-0.42417 -0.239579,-2.84582 0.02982,-4.1861 0.677261,-3.36938 3.342246,-8.25444 6.388636,-11.7107 l 0.819916,-0.93022 0.110669,1.45879 c 0.08677,1.14372 0.198757,1.62625 0.51849,2.23402 0.497234,0.94515 1.581662,1.95429 2.367285,2.2029 0.858529,0.2717 2.217873,0.10866 2.7945,-0.33517 0.600482,-0.46218 1.026148,-1.4159 0.879484,-1.9705 -0.077,-0.29115 -0.05323,-0.39298 0.08165,-0.34983 0.325658,0.10409 0.772259,0.80449 0.926859,1.45351 0.157609,0.66163 0.01103,2.13244 -0.266618,2.67535 -0.277519,0.54263 -1.171774,1.13352 -2.091518,1.38197 -1.402543,0.37887 -1.689324,0.54234 -1.945603,1.10908 -0.2995,0.6623 -0.154336,1.55298 0.290907,1.78492 0.299784,0.15617 0.301931,0.1487 0.05605,-0.19456 -0.326529,-0.45587 -0.322927,-0.53173 0.04332,-0.91256 0.260638,-0.27102 0.510032,-0.31819 1.799828,-0.34054 1.892422,-0.033 2.596108,-0.32599 3.140669,-1.30859 0.596016,-1.07543 0.731438,-1.85274 0.515624,-2.95957 -0.340498,-1.74631 -1.253018,-3.18956 -2.362126,-3.73595 -0.923858,-0.45513 -1.665947,-0.46486 -2.198612,-0.0289 -0.482534,0.39496 -0.531962,0.70208 -0.07152,0.4444 0.467912,-0.26187 1.022397,0.0304 1.306438,0.68877 0.200164,0.4639 0.203811,0.61093 0.02629,1.0584 -0.587297,1.48027 -2.3061,1.62076 -3.823764,0.31256 -0.969749,-0.83593 -1.399785,-1.74664 -1.411039,-2.98828 -0.01566,-1.72986 0.845272,-3.16095 2.352851,-3.91096 0.60012,-0.29857 1.932336,-0.33454 2.693296,-0.0727 2.123433,0.73054 4.069645,3.44979 4.783196,6.68311 0.264323,1.19774 0.932509,6.36911 0.945734,7.31938 0.0054,0.38653 -0.114901,0.87313 -0.289876,1.17274 -0.379827,0.65034 -0.373423,1.07108 0.01978,1.31087 0.1705,0.10387 0.312329,0.34654 0.315175,0.53914 0.003,0.20795 0.09874,0.34878 0.235534,0.34673 0.136795,-0.002 0.228254,-0.14572 0.225181,-0.35365 -0.0028,-0.19263 0.131752,-0.4394 0.299104,-0.54842 0.369297,-0.24053 0.38112,-0.66868 0.03639,-1.31756 -0.210847,-0.39688 -0.244403,-0.75957 -0.181919,-1.96613 0.100031,-1.93138 0.544176,-5.06715 0.921161,-6.50354 0.79781,-3.03981 2.499965,-5.61909 4.262573,-6.45907 1.43579,-0.68425 3.35532,-0.22823 4.48644,1.06587 0.71948,0.82313 0.91487,1.45417 0.86741,2.8013 -0.0333,0.94755 -0.11996,1.25981 -0.56219,2.02745 -0.70562,1.22482 -1.71098,1.86612 -2.80426,1.78872 -0.63446,-0.0448 -0.84428,-0.14457 -1.27621,-0.60623 -0.40771,-0.43571 -0.5189,-0.68546 -0.52624,-1.18176 -0.0123,-0.82958 0.54903,-1.46312 1.21763,-1.37434 0.55489,0.0737 0.57891,-0.10581 0.0587,-0.43878 -0.61975,-0.39662 -1.7345,-0.19885 -2.627172,0.46609 -0.793336,0.59093 -1.615748,1.85201 -1.873694,2.87309 -0.22734,0.89995 -0.04709,2.54947 0.370132,3.38722 0.574081,1.15266 1.050973,1.38378 2.982984,1.44554 1.44948,0.0463 1.6907,0.0943 2.00022,0.39795 0.30755,0.30167 0.32718,0.38667 0.15561,0.67338 -0.16247,0.27148 -0.16137,0.31579 0.007,0.25678 0.29473,-0.10378 0.48332,-0.79201 0.35254,-1.28656 -0.19514,-0.7379 -0.85597,-1.23234 -1.90239,-1.42344 -0.52144,-0.0951 -1.13142,-0.31427 -1.35552,-0.48678 -1.20156,-0.92494 -1.529127,-3.45698 -0.60535,-4.67931 0.42113,-0.55722 0.59264,-0.52193 0.50158,0.10324 -0.0971,0.66607 0.25989,1.34623 0.9938,1.89391 0.4402,0.32848 0.76717,0.42902 1.50465,0.46264 1.18726,0.0541 1.88006,-0.24057 2.79009,-1.18679 0.98016,-1.0192 1.30739,-1.88989 1.29768,-3.453 -0.004,-0.70281 0.0417,-1.27902 0.10239,-1.2805 0.1898,-0.004 2.30359,2.74541 3.65091,4.74977 2.85689,4.25006 4.07606,7.65041 3.86121,10.76903 -0.0967,1.40365 -0.31076,1.7514 -0.472,0.76672 -0.21132,-1.2907 -1.58221,-3.1717 -2.83201,-3.88583 -0.54213,-0.30977 -0.89776,-0.38998 -1.72089,-0.38816 -1.11746,0.002 -1.77819,0.25698 -2.50723,0.96568 l -0.40289,0.39164 -0.21108,-0.36133 c -0.13482,-0.23078 -0.21648,-0.86547 -0.22598,-1.75634 -0.0173,-1.62537 0.30832,-2.58324 1.20291,-3.53801 0.70937,-0.75712 1.30169,-0.9048 1.89837,-0.47333 l 0.44821,0.32412 -0.007,-0.44558 c -0.0147,-0.99493 -1.37294,-1.36242 -2.32555,-0.62921 l -0.48377,0.37238 0.0612,-0.46971 c 0.0794,-0.60919 -0.1853,-0.51124 -0.69573,0.25747 -0.59346,0.89375 -0.84526,1.84903 -0.90977,3.45138 -0.049,1.21884 0.001,1.67375 0.29064,2.63104 0.19249,0.63658 0.35056,1.34924 0.35126,1.58371 9.6e-4,0.23445 -0.007,0.82753 -0.0162,1.31793 -0.0291,1.47841 0.61878,2.58825 1.82633,3.12879 1.77709,0.79554 3.60486,-0.32848 3.5772,-2.19987 -0.013,-0.87786 -0.36064,-1.4347 -1.14081,-1.82709 -0.57735,-0.29037 -1.54461,-0.18187 -1.97306,0.22133 -0.28715,0.27023 -0.31381,0.26355 -0.78371,-0.19676 -0.4793,-0.4695 -0.48262,-0.48264 -0.22551,-0.89183 0.54195,-0.86256 2.45893,-1.33111 3.4257,-0.83732 0.22987,0.1174 0.67727,0.47691 0.99421,0.7989 1.53368,1.55809 1.65206,3.669 0.29564,5.2718 -1.0921,1.29047 -2.22395,1.58324 -3.95591,1.02328 -1.24875,-0.40372 -2.02417,-1.02447 -2.51121,-2.01027 -0.68659,-1.38969 -0.68982,-1.88809 -0.0211,-3.24866 0.16395,-0.33359 -0.66965,-0.0408 -1.07044,0.37585 -0.3549,0.36902 -0.49556,0.43516 -0.59611,0.28026 -0.0724,-0.11149 -0.1334,-0.25226 -0.13559,-0.31282 -0.002,-0.0606 -0.34542,-0.32845 -0.76273,-0.59528 -1.06739,-0.68248 -1.50518,-1.65695 -1.12006,-2.49314 0.1517,-0.32939 0.14907,-0.33064 -0.0773,-0.0363 -0.51541,0.66948 -0.32444,1.75899 0.62315,3.55525 1.62127,3.07325 4.14791,4.95455 6.80901,5.06985 1.07766,0.0466 1.29589,0.006 2.04412,-0.37707 0.86089,-0.44127 1.71501,-1.32809 2.20685,-2.29136 l 0.27918,-0.54678 0.0133,0.54237 c 0.0287,1.16617 -1.24154,3.29865 -2.4439,4.10313 -0.70277,0.47022 -0.8754,0.51476 -2.23021,0.5755 -1.23837,0.0556 -1.61787,0.0111 -2.4218,-0.28413 z m 1.62882,-4.10999 c -0.43987,-0.0797 -1.1268,-0.75666 -1.39772,-1.37762 -0.21513,-0.49307 -0.3177,-1.74421 -0.14321,-1.74683 0.33185,-0.005 0.98506,0.58527 1.24242,1.12272 0.26961,0.563 0.36525,0.63584 0.82569,0.6289 0.62636,-0.0102 0.95062,-0.40535 0.67488,-0.82402 -0.0973,-0.14774 -0.32327,-0.26089 -0.50214,-0.25141 -0.35913,0.0191 -0.43002,-0.22934 -0.14888,-0.52166 0.1949,-0.20265 0.85873,-0.25969 1.26644,-0.10882 0.3371,0.12481 0.71081,0.85998 0.71901,1.41453 0.008,0.53399 -0.44936,1.19064 -1.05871,1.52037 -0.42573,0.23038 -0.79899,0.2667 -1.47778,0.14384 z m -27.770596,-0.4252 c -0.719953,-0.65088 -0.871824,-1.37765 -0.4388,-2.09982 0.345391,-0.57601 0.928035,-0.7946 1.47451,-0.55319 0.458271,0.20247 0.522536,0.64325 0.0777,0.53298 -0.220286,-0.0546 -0.352517,0.0363 -0.480293,0.33116 -0.148453,0.34227 -0.131575,0.45493 0.106796,0.71294 0.155715,0.16853 0.440157,0.30404 0.632096,0.30115 0.393146,-0.005 0.975732,-0.67956 0.969212,-1.12067 -0.0023,-0.15899 0.09093,-0.29051 0.207279,-0.29226 0.116353,-0.001 0.296036,-0.1091 0.399296,-0.23854 0.312268,-0.39148 0.456796,-0.27204 0.466515,0.38551 0.02089,1.41381 -0.740087,2.34551 -2.018989,2.47196 -0.770288,0.0762 -0.867285,0.0461 -1.395326,-0.43122 z M 95.35772,122.85829 c -0.0082,-0.36225 -0.11652,-0.83151 -0.240379,-1.0428 -0.316508,-0.53992 -0.295053,-0.79306 0.11644,-1.37391 l 0.359658,-0.50765 0.358082,0.56569 c 0.322375,0.50927 0.338619,0.61409 0.162881,1.05101 -0.107359,0.26694 -0.221126,0.81709 -0.252815,1.22255 -0.07639,0.97737 -0.481731,1.04583 -0.503867,0.0852 z m -0.806666,-3.82375 c -0.331934,-1.57813 -1.336593,-3.30885 -2.699089,-4.64973 -1.438276,-1.41546 -2.615324,-2.02954 -3.567347,-1.86117 -0.507539,0.0897 -0.599088,0.0642 -0.597896,-0.16715 0.0022,-0.43062 0.345195,-0.96815 0.830503,-1.3016 0.880342,-0.60489 1.530209,-0.36733 2.933918,1.07249 2.049031,2.10175 3.519644,4.969 3.548457,6.91845 0.01573,1.06495 -0.223439,1.05893 -0.448545,-0.0113 z m 1.526639,0.0921 c -0.02415,-1.87996 1.275553,-4.69548 3.090703,-6.69638 1.789094,-1.97216 2.991874,-2.28115 3.999354,-1.02747 0.17973,0.22367 0.329,0.55662 0.33171,0.73992 0.004,0.303 -0.0753,0.33396 -0.87819,0.34112 -1.23366,0.011 -2.15606,0.52314 -3.556733,1.97491 -1.353219,1.40259 -2.28367,3.04426 -2.54695,4.49382 -0.0983,0.54122 -0.235161,0.98488 -0.30413,0.98591 -0.06897,0.001 -0.130059,-0.36429 -0.135764,-0.81183 z m -0.652919,-2.49251 c -0.02007,-1.35763 -0.312656,-2.91495 -1.266527,-6.74126 -0.920107,-3.69087 -0.799251,-5.68947 0.492706,-8.14777 0.286796,-0.54569 0.600831,-1.29476 0.697846,-1.66456 l 0.1764,-0.672342 0.198667,0.617122 c 0.109267,0.33938 0.451892,1.14516 0.761381,1.7906 1.205395,2.51382 1.367436,4.24277 0.666005,7.1062 -0.611879,2.49786 -1.109776,5.0007 -1.345798,6.76511 -0.22617,1.69074 -0.364597,2.03505 -0.38068,0.9469 z m -1.810389,-3.0388 c -0.238321,-0.35191 -0.83883,-1.12769 -1.334472,-1.72392 -1.102062,-1.32573 -1.555197,-2.17752 -1.686623,-3.17043 -0.17456,-1.31875 0.376197,-2.14357 1.30376,-1.95256 0.896015,0.18452 1.315625,1.29628 1.761292,4.66647 0.183552,1.38805 0.375696,2.59 0.42698,2.67104 0.05129,0.0811 0.06381,0.14775 0.02781,0.14829 -0.036,4.6e-4 -0.260433,-0.28696 -0.498747,-0.63889 z m 3.532796,0.20565 c 0.03265,-0.25627 0.125983,-1.16458 0.207366,-2.01841 0.262511,-2.75411 0.757529,-4.27353 1.59453,-4.89421 0.560918,-0.41597 0.811098,-0.41896 1.184593,-0.0142 0.23124,0.2506 0.29944,0.55128 0.30664,1.35185 0.0118,1.30872 -0.21224,1.7898 -1.695821,3.64188 -0.643937,0.80387 -1.280126,1.67252 -1.413751,1.93032 l -0.242955,0.46874 z m -7.118436,-3.70537 c -0.438935,-0.27822 -0.737675,-0.28181 -1.392731,-0.0168 -0.232581,0.0941 -0.223932,0.0287 0.06645,-0.50415 0.183607,-0.33681 0.566557,-0.8891 0.850996,-1.22733 l 0.517158,-0.61496 0.01041,0.70379 c 0.0057,0.38709 0.115251,0.99004 0.2434,1.33987 0.128145,0.34985 0.218707,0.6312 0.201245,0.62522 -0.01748,-0.005 -0.241074,-0.14353 -0.496921,-0.30569 z m 10.742825,-0.39454 c 0.059,-0.33382 0.14595,-0.95155 0.19327,-1.37266 l 0.086,-0.76569 0.40779,0.60322 c 0.22429,0.33178 0.52718,0.82816 0.67309,1.10307 l 0.26526,0.49984 -0.50726,0.007 c -0.27901,0.004 -0.66887,0.12551 -0.86636,0.26961 l -0.35908,0.26197 z m -8.249236,-3.81933 c -0.201883,-0.16466 -0.497613,-0.29741 -0.657187,-0.29501 -0.159568,0.002 -0.290567,-0.0256 -0.291108,-0.0622 -0.0017,-0.11842 1.192199,-1.94346 1.329226,-2.03181 0.07386,-0.0476 0.08781,0.18524 0.03144,0.52489 -0.05571,0.33576 -0.06261,0.96182 -0.01532,1.39125 0.04731,0.42942 0.0599,0.77885 0.028,0.7765 -0.03191,-0.002 -0.223182,-0.139 -0.42506,-0.30365 z m 5.699219,-1.0236 c 0.0034,-0.67431 0.02102,-1.22659 0.03901,-1.22725 0.06162,-0.002 1.299909,1.82293 1.30132,1.91813 9.55e-4,0.0523 -0.07064,0.0517 -0.158682,-0.001 -0.08804,-0.0531 -0.391363,0.0459 -0.674029,0.22001 l -0.513945,0.31655 z"
   id="path2987"
   inkscape:connector-curvature="0"
   sodipodi:nodetypes="scsssscssssssssssscssssssssssssscssssssscccsssssssssssssssssssssscssssssscsscsscssssssssssssssssssssssssscssscssssssssssssssssscssscscssssssssssssssssssssssssssssssssssssssssssscsssssssssssssssssssssssssscscsssssssssssscsssssssssssssssssssssssssscsssscsscsssscssssssssssssssscssssssscsssccsssssscssssssssssssssssssssscssssssscssssssssssssssssscsssssssssscssssssssscssssscsscssscsscsscsssscssssscscscs" /></svg>