<?xml version="1.0" encoding="UTF-8" standalone="no"?>
<!-- http://code.google.com/p/vector-playing-cards/ -->

<svg
   xmlns:dc="http://purl.org/dc/elements/1.1/"
   xmlns:cc="http://creativecommons.org/ns#"
   xmlns:rdf="http://www.w3.org/1999/02/22-rdf-syntax-ns#"
   xmlns:svg="http://www.w3.org/2000/svg"
   xmlns="http://www.w3.org/2000/svg"
   xmlns:xlink="http://www.w3.org/1999/xlink"
   xmlns:sodipodi="http://sodipodi.sourceforge.net/DTD/sodipodi-0.dtd"
   xmlns:inkscape="http://www.inkscape.org/namespaces/inkscape"
   width="132.28688pt"
   height="160.92465pt"
   viewBox="0 0 132.28688 160.92465"
   xml:space="preserve"
   id="svg2"
   version="1.1"
   inkscape:version="0.92.3 (2405546, 2018-03-11)"
   sodipodi:docname="joker_red.svg"
   inkscape:export-filename="/home/byron/art/cards/final/PNGs/4_of_diamonds.png"
   inkscape:export-xdpi="215.44792"
   inkscape:export-ydpi="215.44792"><metadata
   id="metadata43"><rdf:RDF><cc:Work
       rdf:about=""><dc:format>image/svg+xml</dc:format><dc:type
         rdf:resource="http://purl.org/dc/dcmitype/StillImage" /><dc:title /></cc:Work></rdf:RDF></metadata><defs
   id="defs41"><radialGradient
     inkscape:collect="always"
     xlink:href="#linearGradient3773"
     id="radialGradient3781"
     cx="-0.15782039"
     cy="-8.8345356"
     fx="-0.15782039"
     fy="-8.8345356"
     r="7.9997029"
     gradientTransform="matrix(-1.5842693,-0.02349808,0.03071979,-2.4775745,-0.24856378,-26.713507)"
     gradientUnits="userSpaceOnUse" /><linearGradient
     id="linearGradient3773"><stop
       style="stop-color:#000000;stop-opacity:1;"
       offset="0"
       id="stop3775" /><stop
       style="stop-color:#000000;stop-opacity:0.64885497;"
       offset="1"
       id="stop3777" /></linearGradient><radialGradient
     inkscape:collect="always"
     xlink:href="#linearGradient3773"
     id="radialGradient3957"
     cx="-0.15782039"
     cy="-8.8345356"
     fx="-0.15782039"
     fy="-8.8345356"
     r="7.9997029"
     gradientTransform="matrix(-1.5842693,-0.02349808,0.03071979,-2.4775745,-0.24856378,-26.713507)"
     gradientUnits="userSpaceOnUse" /><linearGradient
     id="linearGradient3959"><stop
       style="stop-color:#000000;stop-opacity:1;"
       offset="0"
       id="stop3961" /><stop
       style="stop-color:#000000;stop-opacity:0.64885497;"
       offset="1"
       id="stop3963" /></linearGradient><radialGradient
     r="81.902771"
     fy="509.47577"
     fx="168.02475"
     cy="509.47577"
     cx="168.02475"
     gradientTransform="matrix(1.2565605,-0.77740644,0.33663816,0.5361257,-221.20213,359.24256)"
     gradientUnits="userSpaceOnUse"
     id="radialGradient3975"
     xlink:href="#linearGradient3784-4"
     inkscape:collect="always" /><linearGradient
     id="linearGradient3784-4"><stop
       style="stop-color:#ffffff;stop-opacity:0.4351145;"
       offset="0"
       id="stop3786-8" /><stop
       style="stop-color:#000000;stop-opacity:0;"
       offset="1"
       id="stop3788-6" /></linearGradient><radialGradient
     inkscape:collect="always"
     xlink:href="#linearGradient3784-4-5"
     id="radialGradient3929"
     gradientUnits="userSpaceOnUse"
     gradientTransform="matrix(1.2565605,-0.77740644,0.33663816,0.5361257,-221.20213,359.24256)"
     cx="168.02475"
     cy="509.47577"
     fx="168.02475"
     fy="509.47577"
     r="81.902771" /><linearGradient
     id="linearGradient3784-4-5"><stop
       style="stop-color:#ffffff;stop-opacity:0.48854962;"
       offset="0"
       id="stop3786-8-0" /><stop
       style="stop-color:#000000;stop-opacity:0;"
       offset="1"
       id="stop3788-6-3" /></linearGradient><radialGradient
     inkscape:collect="always"
     xlink:href="#linearGradient3784-4-1"
     id="radialGradient3927"
     gradientUnits="userSpaceOnUse"
     gradientTransform="matrix(1.2565605,-0.77740644,0.33663816,0.5361257,-221.20213,359.24256)"
     cx="168.02475"
     cy="509.47577"
     fx="168.02475"
     fy="509.47577"
     r="81.902771" /><linearGradient
     id="linearGradient3784-4-1"><stop
       style="stop-color:#ffffff;stop-opacity:0.23664123;"
       offset="0"
       id="stop3786-8-03" /><stop
       style="stop-color:#000000;stop-opacity:0;"
       offset="1"
       id="stop3788-6-6" /></linearGradient><linearGradient
     id="linearGradient3768"><stop
       style="stop-color:#df0000;stop-opacity:1;"
       offset="0"
       id="stop3770" /><stop
       style="stop-color:#df0000;stop-opacity:0.67175573;"
       offset="1"
       id="stop3772" /></linearGradient><linearGradient
     id="linearGradient3784-4-6"><stop
       style="stop-color:#ffffff;stop-opacity:0.31297711;"
       offset="0"
       id="stop3786-8-8" /><stop
       style="stop-color:#000000;stop-opacity:0;"
       offset="1"
       id="stop3788-6-8" /></linearGradient><radialGradient
     r="81.902771"
     fy="492.63205"
     fx="159.35434"
     cy="492.63205"
     cx="159.35434"
     gradientTransform="matrix(1.0894779,-0.71513803,0.44645273,0.65626582,-244.93331,290.9185)"
     gradientUnits="userSpaceOnUse"
     id="radialGradient4013-8"
     xlink:href="#linearGradient3784-4-2"
     inkscape:collect="always" /><linearGradient
     id="linearGradient3784-4-2"><stop
       style="stop-color:#ffffff;stop-opacity:0.29007635;"
       offset="0"
       id="stop3786-8-1" /><stop
       style="stop-color:#000000;stop-opacity:0;"
       offset="1"
       id="stop3788-6-5" /></linearGradient><linearGradient
     id="linearGradient2984"><stop
       style="stop-color:#df0000;stop-opacity:1;"
       offset="0"
       id="stop2986" /><stop
       style="stop-color:#df0000;stop-opacity:0.64122134;"
       offset="1"
       id="stop2988" /></linearGradient><linearGradient
     id="linearGradient3784-4-4"><stop
       style="stop-color:#ffffff;stop-opacity:0.4351145;"
       offset="0"
       id="stop3786-8-8-2" /><stop
       style="stop-color:#000000;stop-opacity:0;"
       offset="1"
       id="stop3788-6-1" /></linearGradient><radialGradient
     r="81.902771"
     fy="511.22299"
     fx="171.48665"
     cy="511.22299"
     cx="171.48665"
     gradientTransform="matrix(1.1529891,-0.67391547,0.39482025,0.67549043,-233.63262,270.40076)"
     gradientUnits="userSpaceOnUse"
     id="radialGradient3100"
     xlink:href="#linearGradient3784-4-4"
     inkscape:collect="always" /><radialGradient
     inkscape:collect="always"
     xlink:href="#linearGradient2984"
     id="radialGradient3137"
     gradientUnits="userSpaceOnUse"
     gradientTransform="matrix(-1.1224159,0.00551393,-0.00908973,-1.8503101,-0.0293938,-10.227695)"
     cx="1.6632675e-13"
     cy="-3.2337365"
     fx="1.6632675e-13"
     fy="-3.2337365"
     r="8" /></defs><sodipodi:namedview
   pagecolor="#ffffff"
   bordercolor="#666666"
   borderopacity="1"
   objecttolerance="10"
   gridtolerance="10"
   guidetolerance="10"
   inkscape:pageopacity="0"
   inkscape:pageshadow="2"
   inkscape:window-width="1180"
   inkscape:window-height="1291"
   id="namedview39"
   showgrid="false"
   inkscape:zoom="3.4417536"
   inkscape:cx="61.023934"
   inkscape:cy="111.01634"
   inkscape:window-x="55"
   inkscape:window-y="83"
   inkscape:window-maximized="0"
   inkscape:current-layer="svg2"
   showguides="true"><sodipodi:guide
     position="-13.292642,10.895608"
     orientation="0,222.78255"
     id="guide3973"
     inkscape:locked="false" /><sodipodi:guide
     position="116.80092,165.61325"
     orientation="-323.55599,0"
     id="guide3975"
     inkscape:locked="false" /><sodipodi:guide
     position="138.59214,137.9384"
     orientation="0,-222.78255"
     id="guide3977"
     inkscape:locked="false" /><sodipodi:guide
     position="18.522534,166.92072"
     orientation="323.55599,0"
     id="guide3979"
     inkscape:locked="false" /></sodipodi:namedview>
	<g
   id="Layer_x0020_1"
   style="clip-rule:nonzero;fill-rule:nonzero;stroke:#000000;stroke-miterlimit:4"
   transform="scale(0.79172502,0.66315018)">
		<path
   style="fill:#ffffff;stroke-width:0.5"
   d="m 166.83691,235.54785 c 0,3.77735 -3.08691,6.86914 -6.87109,6.86914 H 7.1108398 C 3.3359375,242.41699 0.25,239.3252 0.25,235.54785 V 7.1201172 C 0.25,3.3427734 3.3359375,0.25 7.1108398,0.25 H 159.96582 c 3.78418,0 6.87109,3.0927734 6.87109,6.8701172 z"
   id="path5"
   inkscape:connector-curvature="0" />
		<g
   style="stroke:none"
   id="g7">
			<g
   id="g9">
				
			</g>
			
		</g>
		<g
   id="g15">
			
		</g>
		<g
   id="g19">
			
		</g>
		<g
   style="stroke:none"
   id="g23">
			<g
   id="g25">
				
			</g>
			
		</g>
		<g
   style="stroke:none"
   id="g31">
			<g
   id="g33">
				
			</g>
			
		</g>
	</g>



























<path
   style="fill:#ff0000;stroke-width:0.18901785"
   d="m 82.1406,97.101769 c -0.663527,-1.50376 -1.886705,-2.9159 -2.938033,-3.39189 -0.470171,-0.21288 -1.831332,-0.46161 -3.502857,-0.6401 -5.559741,-0.59369 -7.419728,-1.84149 -7.60155,-5.09962 l -0.0718,-1.28656 h 0.919005 c 2.232245,0 4.973601,-1.18372 6.621181,-2.85902 1.786501,-1.81658 2.816309,-4.5169 2.251421,-5.903617 -0.247388,-0.607301 -0.388475,-0.658854 -1.595356,-0.583028 -1.099187,0.06906 -1.703805,0.461079 -3.373588,2.187305 -1.588457,1.64213 -2.320966,2.04127 -4.342519,2.36621 l -0.949018,0.15255 -0.111681,-1.60917 c -0.0645,-0.92934 -0.230689,-1.79385 -0.393381,-2.04632 -0.36873,-0.572223 -1.687645,-0.982536 -3.669648,-1.14161 -2.578847,-0.206977 -3.527114,-0.822974 -3.286194,-2.134735 0.306164,-1.66701 2.766511,-6.044464 4.696374,-8.355804 l 0.803523,-0.962357 -0.239021,-0.943661 C 64.532629,61.593904 65.06846,55.651454 66.313011,54.253096 66.617582,53.910885 67.313423,53.900032 85.95002,53.94685 l 19.32126,0.04854 0.34742,1.238913 c 0.22043,0.786052 0.38488,2.171782 0.44991,3.791012 0.16095,4.008099 -0.26721,5.793441 -2.70196,11.266532 -1.58333,3.559134 -2.02717,5.039001 -1.84973,6.167313 0.20464,1.301257 1.23924,2.975579 2.98993,4.838669 0.91672,0.97558 1.63371,1.80542 1.5933,1.84408 -0.0404,0.0387 -5.21888,3.39123 -11.507731,7.45015 -6.288848,4.05891 -11.538902,7.4658 -11.666785,7.57087 -0.173833,0.14282 -0.37197,-0.12501 -0.785038,-1.06116 z"
   id="path20"
   inkscape:connector-curvature="0" /><path
   style="fill:#ff0000;stroke-width:0.18901785"
   d="M 66.076584,46.188343 C 65.907912,41.136289 65.279447,37.922665 63.883805,34.975674 62.304862,31.641631 59.81737,29.222977 56.13671,27.442971 l -1.156538,-0.559315 2.155641,0.0911 c 4.655656,0.196746 8.371018,1.409807 12.277779,4.00868 2.026787,1.348269 3.506815,2.578861 6.244336,5.191947 1.271496,1.213701 2.376009,2.127078 2.459505,2.033888 0.08336,-0.09303 0.467771,-1.241287 0.854252,-2.551675 0.799104,-2.709413 5.881728,-18.908144 5.956651,-18.984328 0.04933,-0.05017 5.024226,15.773343 6.163412,19.603784 0.335153,1.126933 0.668887,2.048969 0.741633,2.048969 0.07274,0 1.114863,-0.940294 2.315821,-2.089541 6.826258,-6.532348 11.587688,-8.915459 18.544368,-9.281518 l 2.26965,-0.119429 -1.78491,0.935647 c -6.33468,3.320639 -8.80959,8.008306 -9.37086,17.749128 -0.0952,1.651601 -0.17566,3.23878 -0.17889,3.527066 l -0.006,0.524155 H 84.906104 66.189539 Z"
   id="path22"
   inkscape:connector-curvature="0" /><path
   style="fill:#ff0000;stroke-width:0.18901785"
   d="m 49.045124,29.361944 c -1.332013,-0.557518 -2.18002,-2.028966 -1.974079,-3.425389 0.159395,-1.08082 1.189333,-2.22999 2.261159,-2.522929 1.86719,-0.510318 3.843512,1.071024 3.833671,3.067488 -0.0038,0.762464 -0.660369,1.978796 -1.348134,2.49734 -0.51338,0.387065 -2.205052,0.621047 -2.772617,0.38349 z"
   id="path24"
   inkscape:connector-curvature="0" /><path
   style="fill:#ff0000;stroke-width:0.18901785"
   d="M 83.239843,14.410398 C 81.70579,13.641724 81.085666,11.659769 81.911647,10.1654 c 0.91606,-1.6573377 2.98033,-2.1614197 4.386183,-1.0710759 1.892326,1.4676389 1.709898,4.2297999 -0.346203,5.2418929 -0.9601,0.4726 -1.86714,0.497412 -2.711784,0.07418 z"
   id="path26"
   inkscape:connector-curvature="0" /><path
   style="fill:#ff0000;stroke-width:0.18901785"
   d="m 118.30092,29.225964 c -0.79306,-0.365292 -1.5832,-1.467599 -1.703,-2.375816 -0.28275,-2.143588 1.76837,-4.001007 3.79349,-3.43524 1.06145,0.29654 2.09149,1.451277 2.24934,2.521647 0.15924,1.079724 -0.3691,2.361661 -1.23034,2.985239 -0.75433,0.546168 -2.26357,0.693802 -3.10949,0.30417 z"
   id="path28"
   inkscape:connector-curvature="0" /><path
   style="fill:#ff0000;stroke-width:0.21791218"
   d="m 9.8354832,41.96734 c 0.2805498,-1.425715 0.5125798,-2.602752 0.5156218,-2.615642 0.0031,-0.01288 0.603025,-0.08588 1.333297,-0.162216 0.730272,-0.07633 1.735392,-0.319737 2.2336,-0.540909 1.197877,-0.531783 2.403484,-1.903359 2.830953,-3.220675 0.19003,-0.585611 1.427863,-6.654192 2.750741,-13.485738 1.322877,-6.831547 2.456367,-12.6416298 2.518865,-12.911296 0.112004,-0.4832678 0.163598,-0.4903028 3.596077,-0.4903028 3.035521,0 3.482443,0.044393 3.482443,0.3459308 0,0.6597697 -5.029147,26.135893 -5.37339,27.219959 -0.574127,1.80799 -1.848784,4.041837 -2.91096,5.101473 -2.043116,2.038233 -4.720494,3.012484 -8.847074,3.219299 l -2.6402658,0.132326 z"
   id="path152"
   inkscape:connector-curvature="0" /><path
   style="fill:#ff0000;stroke-width:0.21791218"
   d="m 22.980228,63.51791 c -0.733301,-0.380829 -1.1111,-0.775086 -1.525385,-1.591834 -1.540567,-3.037175 0.276014,-9.955785 3.441866,-13.108652 1.958583,-1.95055 5.482949,-3.864118 7.934924,-4.308297 1.881768,-0.340885 4.013821,0.987485 4.527052,2.820567 0.745387,2.662264 -1.149335,9.203711 -3.441483,11.88157 -0.398673,0.465759 -1.539359,1.388785 -2.534857,2.051167 -3.831077,2.54911 -6.471761,3.25798 -8.402117,2.255479 z m 5.986693,-1.894524 c 1.746604,-0.7978 3.342562,-3.092139 4.491197,-6.456517 0.710746,-2.08179 0.75692,-5.918553 0.08496,-7.059367 -0.663165,-1.125877 -1.458657,-1.619847 -2.581282,-1.602876 -1.154269,0.01745 -1.639588,0.254502 -2.900423,1.416698 -2.013218,1.855721 -3.50272,5.32181 -3.712842,8.639834 -0.138104,2.180774 0.12919,3.408086 0.95632,4.391075 0.966998,1.149211 2.143442,1.36482 3.662071,0.671153 z"
   id="path154"
   inkscape:connector-curvature="0" /><path
   style="fill:#ff0000;stroke-width:0.21791218"
   d="m 37.480893,104.26749 c -3.628626,-0.81765 -6.328256,-2.92658 -8.099934,-6.327615 -0.835387,-1.603673 -3.563277,-7.666478 -4.338407,-9.642233 -0.184283,-0.469717 -0.229457,-0.479542 -0.814377,-0.177067 -0.586244,0.303157 -0.66264,0.521452 -1.432392,4.092862 -0.447216,2.074943 -0.893243,3.971573 -0.991171,4.21473 -0.116812,0.290055 -0.618161,0.580755 -1.457674,0.845205 -0.703792,0.2217 -1.386512,0.443978 -1.517153,0.49395 -0.130643,0.04995 0.776868,-4.349655 2.01669,-9.776962 3.334471,-14.59659 3.417305,-14.856687 5.392819,-16.933309 1.498758,-1.575466 4.377888,-3.807257 5.684839,-4.406666 0.803426,-0.368478 3.59555,-0.595064 3.59555,-0.291786 0,0.06466 -0.339193,0.621227 -0.753764,1.236828 l -0.753764,1.119276 -1.305604,-0.05329 c -2.37305,-0.09685 -3.558181,0.740607 -4.699183,3.320615 -0.596752,1.34936 -3.951247,14.465354 -3.750854,14.665746 0.07211,0.07207 2.054719,-1.62165 4.405819,-3.76389 2.351099,-2.14224 4.663389,-4.124999 5.13842,-4.406137 1.025577,-0.60696 2.652863,-0.673807 3.664754,-0.150532 l 0.66537,0.344077 -1.142163,1.720132 c -0.828501,1.247745 -1.190019,1.635458 -1.316427,1.4118 -0.254553,-0.450397 -1.345236,-0.96219 -2.048514,-0.961252 -0.845216,0.0015 -1.574402,0.496237 -4.142554,2.812732 l -2.225002,2.006978 0.511566,1.130812 c 1.959812,4.33215 5.674442,11.887807 6.330101,12.875602 2.863627,4.314244 6.661436,4.782784 9.295343,1.146784 0.399344,-0.55128 0.651928,-0.74655 0.714802,-0.5526 0.05348,0.16497 0.248573,0.83927 0.433541,1.49845 0.329367,1.17379 0.326315,1.20626 -0.14798,1.57357 -1.356686,1.05067 -4.505122,1.47569 -6.912697,0.93319 z"
   id="path156"
   inkscape:connector-curvature="0" /><path
   style="fill:#ff0000;stroke-width:0.21791218"
   d="m 20.766533,124.53327 c -0.396817,-0.26967 -0.926135,-0.88254 -1.176264,-1.36194 -1.33441,-2.55759 0.412782,-10.61845 2.920653,-13.47476 0.958241,-1.09138 2.964768,-2.62195 4.48703,-3.42271 3.153275,-1.65872 5.683059,-0.12644 4.903377,2.96996 -0.52416,2.08163 -2.023209,3.55564 -7.080494,6.9622 l -2.576347,1.73541 0.127825,1.3802 c 0.387461,4.18364 3.609111,4.37479 8.475955,0.5029 1.564464,-1.24463 1.688819,-1.30461 1.688819,-0.81444 0,1.03171 -4.568258,4.61838 -7.078624,5.55763 -1.699726,0.63595 -3.727342,0.62106 -4.69193,-0.0344 z m 3.462219,-9.24278 c 3.617545,-2.54663 4.603828,-3.80373 4.603828,-5.86795 0,-1.41524 -0.439989,-2.04985 -1.421203,-2.04985 -1.020462,0 -2.037298,0.94206 -3.005424,2.7844 -1.07645,2.04849 -2.248258,6.15 -1.757064,6.15 0.07467,0 0.785607,-0.45747 1.579863,-1.0166 z"
   id="path158"
   inkscape:connector-curvature="0" /><path
   style="fill:#ff0000;stroke-width:0.21791218"
   d="m 18.522534,150.02904 c 0,-0.14131 0.584118,-2.37219 1.29804,-4.9575 1.713141,-6.20377 2.185188,-8.21615 2.187028,-9.32353 0.0025,-1.50046 -0.813368,-1.63863 -3.022087,-0.51183 -1.025191,0.52302 -1.22824,0.49061 -1.020822,-0.16291 0.136247,-0.42927 6.740601,-3.96357 7.406519,-3.96357 0.539931,0 0.621498,0.42825 0.336954,1.76907 -0.150857,0.71088 -0.230244,1.33654 -0.176416,1.39037 0.05383,0.0538 0.778681,-0.39966 1.610785,-1.00775 2.31453,-1.69145 3.480185,-2.21996 4.614273,-2.09214 0.52335,0.059 1.002031,0.15774 1.063736,0.21945 0.09959,0.0996 -0.956612,3.82965 -1.150583,4.06336 -0.04249,0.0512 -0.373498,-0.19075 -0.735589,-0.53766 -0.947436,-0.9077 -2.47019,-0.86614 -4.316292,0.11783 -1.559267,0.83108 -1.194119,-0.0723 -3.410888,8.4388 l -1.488503,5.715 -1.439266,0.54998 c -1.640534,0.62688 -1.756889,0.64629 -1.756889,0.29303 z"
   id="path160"
   inkscape:connector-curvature="0" /></svg>